# xmcd
#
# Track frame offsets:
# 150
# 20016
# 37778
# 56022
# 79954
# 101075
# 112254
# 125058
# 159599
# 180201
# 195166
# 222694
# 241861
# 261990
# 277041
# 291627
#
# Disc length: 4063 seconds
#
# Revision: 0
# Processed by: cddbd v1.5.1PL2 Copyright (c) Steve Scherf et al.
# Submitted via: Audion 3.0.2 (http://www.panic.com/audion/)
#
DISCID=f30fdd10
DTITLE=inkog and mr. gone - img
DYEAR=1900
DGENRE=
TTITLE0=intro
TTITLE1=windows
TTITLE2=live or memorex
TTITLE3=84
TTITLE4=rise and fall
TTITLE5=onananonanon
TTITLE6=victorious
TTITLE7=illdamena
TTITLE8=rockstarz
TTITLE9=distinguished
TTITLE10=what they say
TTITLE11=daybreak
TTITLE12=luvdontluvus
TTITLE13=10-story drop
TTITLE14=0ne 4 the sun
TTITLE15=stream of consciousness
EXTD=
EXTT0=
EXTT1=
EXTT2=
EXTT3=
EXTT4=
EXTT5=
EXTT6=
EXTT7=
EXTT8=
EXTT9=
EXTT10=
EXTT11=
EXTT12=
EXTT13=
EXTT14=
EXTT15=
PLAYORDER=
